<svg width="49" height="45" viewBox="0 0 49 45" fill="none" xmlns="http://www.w3.org/2000/svg">
<path d="M4.6028 1.13086L12.1668 8.60618L17.1269 3.70433L29.5269 15.959L35.727 9.83165L48.623 22.5765L45.151 26.0078L35.727 16.6942L29.5269 22.8216L17.1269 10.5669L12.1668 15.4688L1.13078 4.56216L4.6028 1.13086Z" fill="#1565C0"/>
<path d="M5.72205e-05 0H11.3077L5.72205e-05 11.3077V0Z" fill="#1565C0"/>
<path d="M4.90002 15.925H2.38419e-05V44.1H4.90002V15.925Z" fill="#B3E5FC"/>
<path d="M12.25 24.5002H7.35V44.1002H12.25V24.5002Z" fill="#B3E5FC"/>
<path d="M19.6001 18.375H14.7001V44.1H19.6001V18.375Z" fill="#B3E5FC"/>
<path d="M26.95 25.7249H22.05V44.0998H26.95V25.7249Z" fill="#B3E5FC"/>
<path d="M34.3 29.3999H29.4001V44.0999H34.3V29.3999Z" fill="#B3E5FC"/>
<path d="M41.6499 26.95H36.7499V44.0999H41.6499V26.95Z" fill="#B3E5FC"/>
<path d="M49 31.8501H44.1V44.1001H49V31.8501Z" fill="#B3E5FC"/>
</svg>
